<svg xmlns="http://www.w3.org/2000/svg"  viewBox="0 0 100 100" width="100px" height="100px"><circle cx="78" cy="14" r="1" fill="#f1bc19"/><circle cx="50" cy="50" r="38" fill="#f9dbd2"/><circle cx="84" cy="16" r="4" fill="#f1bc19"/><circle cx="14" cy="26" r="2" fill="#ee3e54"/><circle cx="78" cy="77" r="2" fill="#fbcd59"/><circle cx="17" cy="78" r="4" fill="#fbcd59"/><circle cx="24" cy="83" r="2" fill="#ee3e54"/><circle cx="66.483" cy="78.517" r="2.483" fill="#fff"/><circle cx="16" cy="48" r="1" fill="#fff"/><circle cx="86" cy="31" r="1" fill="#f1bc19"/><circle cx="80" cy="66" r="2" fill="#fff"/><path fill="#c06134" d="M72.3,35v30c0,4-3.3,7.3-7.3,7.3H35c-0.78,0-1.54-0.13-2.25-0.36c-2.92-0.96-5.05-3.72-5.05-6.94V35	c0-3.22,2.13-5.98,5.05-6.94c0.71-0.23,1.47-0.36,2.25-0.36h30C69,27.7,72.3,31,72.3,35z"/><path fill="#6d3c14" d="M32.75,28.06v43.88c-2.92-0.96-5.05-3.72-5.05-6.94V35C27.7,31.78,29.83,29.02,32.75,28.06z"/><path fill="#fce0a2" d="M52.875,65.5c-8.625,0-17.25,0-19.25,0s-5,0.625-4,3.875s6.5,2.875,9.625,2.875s24,0,26.5,0	S72.3,69.375,72.3,65s0-5.25,0-5.25s-1.675,5.75-9.925,5.75S52.875,65.5,52.875,65.5z"/><path fill="#472b29" d="M65,28.4c3.6,0,6.6,3,6.6,6.6v30c0,3.6-3,6.6-6.6,6.6H35c-3.6,0-6.6-3-6.6-6.6V35	c0-3.6,3-6.6,6.6-6.6H65 M65,27H35c-4.4,0-8,3.6-8,8v30c0,4.4,3.6,8,8,8h30c4.4,0,8-3.6,8-8V35C73,30.6,69.4,27,65,27L65,27z"/><path fill="#472b29" d="M31.5,71.75c-0.119,0-0.239-0.042-0.334-0.128l-0.33-0.294C29.77,70.383,29,69.7,29,68	c0-3,4.335-3,7.5-3h26.932c3.675,0,5.527-1.266,6.73-2.369c0.592-0.543,1.713-2.001,1.713-3.631c0-0.276,0.224-0.5,0.5-0.5	s0.5,0.224,0.5,0.5c0,1.974-1.28,3.675-2.037,4.369C69.501,64.594,67.452,66,63.432,66H36.5c-4.117,0-6.5,0.327-6.5,2	c0,1.25,0.47,1.667,1.499,2.58l0.335,0.299c0.205,0.185,0.222,0.501,0.037,0.706C31.773,71.694,31.637,71.75,31.5,71.75z"/><path fill="#472b29" d="M32.75,65.75c-0.138,0-0.25-0.112-0.25-0.25v-4.25c0-0.138,0.112-0.25,0.25-0.25S33,61.112,33,61.25	v4.25C33,65.638,32.888,65.75,32.75,65.75z"/><path fill="#472b29" d="M32.75,60c-0.138,0-0.25-0.112-0.25-0.25v-2.5c0-0.138,0.112-0.25,0.25-0.25S33,57.112,33,57.25v2.5	C33,59.888,32.888,60,32.75,60z"/><path fill="#472b29" d="M32.75,56c-0.138,0-0.25-0.112-0.25-0.25v-16.5c0-0.138,0.112-0.25,0.25-0.25S33,39.112,33,39.25	v16.5C33,55.888,32.888,56,32.75,56z"/><path fill="#472b29" d="M32.75,38c-0.138,0-0.25-0.112-0.25-0.25v-3.5c0-0.138,0.112-0.25,0.25-0.25S33,34.112,33,34.25v3.5	C33,37.888,32.888,38,32.75,38z"/><path fill="#472b29" d="M32.75,33c-0.138,0-0.25-0.112-0.25-0.25v-1.5c0-0.138,0.112-0.25,0.25-0.25S33,31.112,33,31.25v1.5	C33,32.888,32.888,33,32.75,33z"/><path fill="#472b29" d="M34.75,61c-0.138,0-0.25-0.112-0.25-0.25v-18.5c0-0.138,0.112-0.25,0.25-0.25S35,42.112,35,42.25	v18.5C35,60.888,34.888,61,34.75,61z"/><path fill="#472b29" d="M34.75,41c-0.138,0-0.25-0.112-0.25-0.25v-4.5c0-0.138,0.112-0.25,0.25-0.25S35,36.112,35,36.25v4.5	C35,40.888,34.888,41,34.75,41z"/><path fill="#472b29" d="M34.75,35c-0.138,0-0.25-0.112-0.25-0.25v-2.5c0-0.138,0.112-0.25,0.25-0.25S35,32.112,35,32.25v2.5	C35,34.888,34.888,35,34.75,35z"/><g><polygon fill="#d6213f" points="41.75,65.625 41.75,69.75 38.5,68.25 35.25,69.75 35.25,65.625"/><path fill="#472b29" d="M41.75,70c-0.036,0-0.071-0.008-0.105-0.023L38.5,68.525l-3.145,1.452 c-0.078,0.035-0.167,0.03-0.24-0.017C35.043,69.915,35,69.835,35,69.75v-4.125c0-0.138,0.112-0.25,0.25-0.25h6.5 c0.138,0,0.25,0.112,0.25,0.25v4.125c0,0.085-0.043,0.165-0.115,0.21C41.844,69.987,41.797,70,41.75,70z M38.5,68 c0.036,0,0.071,0.008,0.105,0.023l2.895,1.336v-3.484h-6v3.484l2.895-1.336C38.429,68.008,38.464,68,38.5,68z"/></g><g><path fill="#fce0a2" d="M42.283,37.428h2.894v-1.782c0-0.318-0.02-0.528-0.06-0.629c-0.031-0.076-0.095-0.142-0.193-0.197 c-0.132-0.074-0.271-0.11-0.418-0.11h-0.22v-0.17h2.664v0.17h-0.22c-0.147,0-0.287,0.035-0.418,0.105 c-0.098,0.049-0.165,0.124-0.2,0.223c-0.035,0.099-0.053,0.302-0.053,0.608v4.019c0,0.315,0.02,0.524,0.06,0.625 c0.031,0.076,0.094,0.142,0.188,0.197c0.135,0.074,0.276,0.11,0.423,0.11h0.22v0.17h-2.664v-0.17h0.22 c0.254,0,0.439-0.075,0.556-0.225c0.076-0.098,0.115-0.334,0.115-0.708v-1.897h-2.894v1.897c0,0.315,0.02,0.524,0.06,0.625 c0.03,0.076,0.095,0.142,0.193,0.197c0.131,0.074,0.271,0.11,0.418,0.11h0.225v0.17H40.51v-0.17h0.221 c0.257,0,0.444-0.075,0.56-0.225c0.074-0.098,0.11-0.334,0.11-0.708v-4.019c0-0.318-0.02-0.528-0.06-0.629 c-0.031-0.076-0.093-0.142-0.188-0.197c-0.135-0.074-0.275-0.11-0.422-0.11H40.51v-0.17h2.669v0.17h-0.225 c-0.147,0-0.287,0.035-0.418,0.105c-0.095,0.049-0.161,0.124-0.198,0.223c-0.037,0.099-0.055,0.302-0.055,0.608V37.428z"/><path fill="#fce0a2" d="M50.583,34.396c0.809,0,1.509,0.307,2.102,0.921c0.592,0.614,0.889,1.38,0.889,2.299 c0,0.946-0.298,1.731-0.896,2.356c-0.597,0.625-1.32,0.937-2.168,0.937c-0.857,0-1.578-0.305-2.161-0.914 c-0.583-0.609-0.875-1.398-0.875-2.366c0-0.989,0.337-1.796,1.011-2.421C49.069,34.667,49.769,34.396,50.583,34.396z M50.496,34.732c-0.557,0-1.004,0.207-1.341,0.62c-0.419,0.515-0.629,1.268-0.629,2.26c0,1.017,0.217,1.799,0.652,2.347 c0.334,0.417,0.775,0.625,1.323,0.625c0.584,0,1.068-0.228,1.449-0.685c0.381-0.456,0.572-1.176,0.572-2.159 c0-1.066-0.21-1.86-0.629-2.384C51.556,34.94,51.09,34.732,50.496,34.732z"/><path fill="#fce0a2" d="M59.329,39.045l0.151,0.032l-0.533,1.69h-4.823v-0.17h0.234c0.264,0,0.452-0.086,0.565-0.257 c0.064-0.098,0.096-0.325,0.096-0.68v-4.019c0-0.389-0.043-0.632-0.128-0.73c-0.12-0.135-0.297-0.202-0.533-0.202h-0.234v-0.17 h2.82v0.17c-0.331-0.003-0.563,0.027-0.696,0.092c-0.133,0.064-0.225,0.146-0.273,0.244c-0.049,0.098-0.074,0.332-0.074,0.703 v3.914c0,0.254,0.024,0.429,0.074,0.523c0.037,0.064,0.093,0.112,0.17,0.143s0.315,0.046,0.716,0.046h0.455 c0.478,0,0.813-0.035,1.006-0.105c0.193-0.071,0.369-0.195,0.528-0.375S59.17,39.431,59.329,39.045z"/><path fill="#fce0a2" d="M63.224,34.539h2.173v0.17h-0.12c-0.08,0-0.196,0.035-0.349,0.105 c-0.153,0.071-0.292,0.172-0.418,0.303c-0.125,0.132-0.28,0.346-0.464,0.643l-1.502,2.366v1.562c0,0.383,0.043,0.622,0.129,0.717 c0.116,0.128,0.3,0.193,0.551,0.193h0.202v0.17h-2.646v-0.17h0.22c0.264,0,0.45-0.08,0.561-0.239 c0.067-0.098,0.101-0.322,0.101-0.671v-1.474l-1.709-2.609c-0.202-0.306-0.339-0.498-0.411-0.574 c-0.072-0.076-0.222-0.168-0.448-0.275c-0.061-0.031-0.15-0.046-0.266-0.046v-0.17h2.664v0.17h-0.138 c-0.144,0-0.276,0.034-0.397,0.101s-0.182,0.168-0.182,0.303c0,0.11,0.094,0.309,0.28,0.597l1.3,2.007l1.222-1.92 c0.184-0.288,0.275-0.502,0.275-0.643c0-0.085-0.022-0.162-0.066-0.229s-0.108-0.12-0.191-0.158 c-0.083-0.039-0.207-0.058-0.372-0.058V34.539z"/><path fill="#fce0a2" d="M43.526,47.589c0.432,0.092,0.755,0.239,0.969,0.441c0.297,0.282,0.446,0.626,0.446,1.034 c0,0.309-0.098,0.605-0.294,0.889c-0.196,0.283-0.465,0.49-0.806,0.62c-0.342,0.13-0.863,0.195-1.564,0.195h-2.939v-0.17h0.234 c0.26,0,0.447-0.083,0.56-0.248c0.07-0.107,0.106-0.335,0.106-0.685v-4.023c0-0.386-0.044-0.629-0.133-0.73 c-0.12-0.135-0.297-0.202-0.533-0.202h-0.234v-0.17h2.691c0.502,0,0.905,0.037,1.208,0.11c0.459,0.11,0.81,0.305,1.052,0.585 c0.242,0.28,0.363,0.603,0.363,0.967c0,0.313-0.095,0.592-0.285,0.838C44.177,47.287,43.896,47.47,43.526,47.589z M41.119,47.341 c0.113,0.021,0.243,0.038,0.388,0.048s0.305,0.016,0.48,0.016c0.447,0,0.783-0.048,1.008-0.145 c0.225-0.097,0.397-0.244,0.517-0.443s0.179-0.417,0.179-0.652c0-0.364-0.148-0.675-0.446-0.933c-0.297-0.257-0.73-0.386-1.3-0.386 c-0.306,0-0.582,0.034-0.827,0.101V47.341z M41.119,50.317c0.355,0.083,0.706,0.124,1.052,0.124c0.554,0,0.977-0.125,1.268-0.375 c0.291-0.25,0.437-0.558,0.437-0.925c0-0.242-0.066-0.475-0.197-0.698c-0.132-0.224-0.346-0.399-0.643-0.528 c-0.297-0.128-0.665-0.193-1.103-0.193c-0.19,0-0.352,0.003-0.487,0.009s-0.244,0.017-0.326,0.032V50.317z"/><path fill="#fce0a2" d="M48.358,50.598v0.17h-2.668v-0.17h0.22c0.257,0,0.444-0.075,0.561-0.225 c0.073-0.098,0.11-0.334,0.11-0.708v-4.023c0-0.315-0.02-0.524-0.06-0.625c-0.03-0.076-0.093-0.142-0.188-0.197 c-0.135-0.074-0.276-0.11-0.423-0.11h-0.22v-0.17h2.668v0.17h-0.225c-0.254,0-0.439,0.075-0.556,0.225 c-0.077,0.098-0.115,0.334-0.115,0.708v4.023c0,0.315,0.02,0.524,0.06,0.625c0.031,0.076,0.095,0.142,0.193,0.197 c0.132,0.074,0.271,0.11,0.418,0.11H48.358z"/><path fill="#fce0a2" d="M52.933,47.589c0.432,0.092,0.755,0.239,0.969,0.441c0.297,0.282,0.446,0.626,0.446,1.034 c0,0.309-0.098,0.605-0.294,0.889c-0.196,0.283-0.465,0.49-0.806,0.62c-0.342,0.13-0.863,0.195-1.564,0.195h-2.939v-0.17h0.234 c0.26,0,0.447-0.083,0.56-0.248c0.07-0.107,0.106-0.335,0.106-0.685v-4.023c0-0.386-0.044-0.629-0.133-0.73 c-0.12-0.135-0.297-0.202-0.533-0.202h-0.234v-0.17h2.691c0.502,0,0.905,0.037,1.208,0.11c0.459,0.11,0.81,0.305,1.052,0.585 c0.242,0.28,0.363,0.603,0.363,0.967c0,0.313-0.095,0.592-0.285,0.838C53.584,47.287,53.304,47.47,52.933,47.589z M50.526,47.341 c0.113,0.021,0.243,0.038,0.388,0.048s0.305,0.016,0.48,0.016c0.447,0,0.783-0.048,1.008-0.145 c0.225-0.097,0.397-0.244,0.517-0.443s0.179-0.417,0.179-0.652c0-0.364-0.148-0.675-0.446-0.933c-0.297-0.257-0.73-0.386-1.3-0.386 c-0.306,0-0.582,0.034-0.827,0.101V47.341z M50.526,50.317c0.355,0.083,0.706,0.124,1.052,0.124c0.554,0,0.977-0.125,1.268-0.375 c0.291-0.25,0.437-0.558,0.437-0.925c0-0.242-0.066-0.475-0.197-0.698c-0.132-0.224-0.346-0.399-0.643-0.528 c-0.297-0.128-0.665-0.193-1.103-0.193c-0.19,0-0.352,0.003-0.487,0.009s-0.244,0.017-0.326,0.032V50.317z"/><path fill="#fce0a2" d="M60.255,49.045l0.151,0.032l-0.533,1.69h-4.823v-0.17h0.234c0.264,0,0.452-0.086,0.565-0.257 c0.064-0.098,0.096-0.325,0.096-0.68v-4.019c0-0.389-0.043-0.632-0.128-0.73c-0.12-0.135-0.297-0.202-0.533-0.202h-0.234v-0.17 h2.82v0.17c-0.331-0.003-0.563,0.027-0.696,0.092c-0.133,0.064-0.225,0.146-0.273,0.244c-0.049,0.098-0.074,0.332-0.074,0.703 v3.914c0,0.254,0.024,0.429,0.074,0.523c0.037,0.064,0.093,0.112,0.17,0.143s0.315,0.046,0.716,0.046h0.455 c0.478,0,0.813-0.035,1.006-0.105c0.193-0.071,0.369-0.195,0.528-0.375S60.096,49.431,60.255,49.045z"/><path fill="#fce0a2" d="M62.574,44.879v2.462h1.369c0.355,0,0.592-0.053,0.712-0.161c0.159-0.141,0.248-0.389,0.266-0.744 h0.17v2.168h-0.17c-0.043-0.303-0.085-0.498-0.128-0.583c-0.055-0.107-0.146-0.191-0.271-0.253 c-0.125-0.061-0.318-0.092-0.579-0.092h-1.369v2.053c0,0.275,0.012,0.443,0.037,0.503c0.024,0.06,0.067,0.107,0.128,0.143 c0.061,0.035,0.178,0.053,0.349,0.053h1.057c0.352,0,0.607-0.024,0.767-0.074c0.159-0.049,0.312-0.145,0.459-0.289 c0.19-0.19,0.384-0.476,0.583-0.859h0.184l-0.537,1.562h-4.8v-0.17h0.221c0.147,0,0.286-0.035,0.418-0.105 c0.098-0.049,0.165-0.123,0.2-0.221s0.053-0.298,0.053-0.602v-4.047c0-0.395-0.04-0.639-0.119-0.73 c-0.11-0.123-0.294-0.184-0.551-0.184h-0.221v-0.17h4.8l0.069,1.364h-0.179c-0.064-0.328-0.136-0.553-0.214-0.675 s-0.193-0.216-0.347-0.28c-0.123-0.046-0.338-0.069-0.647-0.069H62.574z"/></g><path fill="#472b29" d="M63.75,70h-8.5C55.112,70,55,69.888,55,69.75s0.112-0.25,0.25-0.25h8.5	c1.213,0,2.373-0.373,3.354-1.079c0.111-0.081,0.268-0.056,0.349,0.057c0.081,0.112,0.055,0.268-0.057,0.349	C66.329,69.594,65.068,70,63.75,70z"/><path fill="#472b29" d="M53.75,70h-3.5C50.112,70,50,69.888,50,69.75s0.112-0.25,0.25-0.25h3.5c0.138,0,0.25,0.112,0.25,0.25	S53.888,70,53.75,70z"/><path fill="#472b29" d="M48.75,70h-2.5C46.112,70,46,69.888,46,69.75s0.112-0.25,0.25-0.25h2.5c0.138,0,0.25,0.112,0.25,0.25	S48.888,70,48.75,70z"/><path fill="#472b29" d="M62.75,68h-9.5C53.112,68,53,67.888,53,67.75s0.112-0.25,0.25-0.25h9.5c0.138,0,0.25,0.112,0.25,0.25	S62.888,68,62.75,68z"/><path fill="#472b29" d="M51.75,68h-2.5C49.112,68,49,67.888,49,67.75s0.112-0.25,0.25-0.25h2.5c0.138,0,0.25,0.112,0.25,0.25	S51.888,68,51.75,68z"/></svg>